<?xml version="1.0" encoding="UTF-8" standalone="no"?>
<svg
   xmlns:dc="http://purl.org/dc/elements/1.1/"
   xmlns:cc="http://creativecommons.org/ns#"
   xmlns:rdf="http://www.w3.org/1999/02/22-rdf-syntax-ns#"
   xmlns:svg="http://www.w3.org/2000/svg"
   xmlns="http://www.w3.org/2000/svg"
   xmlns:sodipodi="http://sodipodi.sourceforge.net/DTD/sodipodi-0.dtd"
   xmlns:inkscape="http://www.inkscape.org/namespaces/inkscape"
   version="1.1"
   id="svg470"
   xml:space="preserve"
   width="288.77267"
   height="263.73053"
   viewBox="0 0 288.77267 263.73053"
   sodipodi:docname="fct_logo.svg"
   inkscape:version="1.0.2 (e86c8708, 2021-01-15)"><metadata
     id="metadata476"><rdf:RDF><cc:Work
         rdf:about=""><dc:format>image/svg+xml</dc:format><dc:type
           rdf:resource="http://purl.org/dc/dcmitype/StillImage" /><dc:title></dc:title></cc:Work></rdf:RDF></metadata><defs
     id="defs474"><clipPath
       clipPathUnits="userSpaceOnUse"
       id="clipPath490"><path
         d="M 0,595.276 H 595.276 V 0 H 0 Z"
         id="path488" /></clipPath></defs><sodipodi:namedview
     pagecolor="#ffffff"
     bordercolor="#666666"
     borderopacity="1"
     objecttolerance="10"
     gridtolerance="10"
     guidetolerance="10"
     inkscape:pageopacity="0"
     inkscape:pageshadow="2"
     inkscape:window-width="1071"
     inkscape:window-height="791"
     id="namedview472"
     showgrid="false"
     inkscape:zoom="0.926041"
     inkscape:cx="-44.114961"
     inkscape:cy="131.86454"
     inkscape:window-x="150"
     inkscape:window-y="25"
     inkscape:window-maximized="0"
     inkscape:current-layer="g478"
     inkscape:document-rotation="0"
     fit-margin-top="0"
     fit-margin-left="0"
     fit-margin-right="0"
     fit-margin-bottom="0" /><g
     id="g478"
     inkscape:groupmode="layer"
     inkscape:label="2017_FCT_V_cor"
     transform="matrix(1.3333333,0,0,-1.3333333,-252.52906,528.71519)"><g
       id="g480"
       transform="translate(241.4876,395.5181)"><path
         d="M 0,0 V -14.575 H -30.222 V -28.766 H 0 V -43.341 H -30.222 V -72.874 H -52.188 V 0 Z"
         style="fill:#095551;fill-opacity:1;fill-rule:nonzero;stroke:none"
         id="path482" /></g><g
       id="g484"><g
         id="g486"
         clip-path="url(#clipPath490)"><g
           id="g492"
           transform="translate(321.3698,328.0794)"><path
             d="m 0,0 c -9.575,-4.948 -19.147,-6.452 -28.718,-6.452 -25.706,0 -41.196,15.164 -41.196,37.507 0,25.784 19.577,37.402 41.519,37.402 12.26,0 22.264,-3.442 28.071,-5.485 V 43.58 c -4.087,2.484 -12.261,7.881 -23.124,7.881 -12.478,0 -24.092,-7.881 -24.092,-20.729 0,-11.121 9.465,-20.19 22.909,-20.19 11.725,0 20.328,5.182 24.631,7.88 z"
             style="fill:#095551;fill-opacity:1;fill-rule:nonzero;stroke:none"
             id="path494" /></g><g
           id="g496"
           transform="translate(405.9763,395.5062)"><path
             d="m 0,0 v -17.747 h -26.675 v -55.115 h -21.966 v 55.115 H -75.314 V 0 Z"
             style="fill:#095551;fill-opacity:1;fill-rule:nonzero;stroke:none"
             id="path498" /></g><g
           id="g500"
           transform="translate(189.3968,282.4799)"><path
             d="M 0,0 H 3.109 V 18.906 H 0 v 1.898 h 15.795 v -4.927 h -1.898 v 3.029 H 6.792 v -8.443 h 5.523 v 2.764 h 1.899 V 5.306 H 12.315 V 8.564 H 6.792 V 0 h 3.14 V -1.898 H 0 Z"
             style="fill:#231f20;fill-opacity:1;fill-rule:nonzero;stroke:none"
             id="path502" /></g><g
           id="g504"
           transform="translate(206.6722,296.4342)"><path
             d="m 0,0 h 6.331 v -10.926 c 0,-2.052 1.104,-3.268 2.892,-3.268 1.065,0 2.435,0.57 3.881,1.634 V -1.541 H 10.288 V 0 h 6.304 v -14.315 h 2.843 v -1.542 h -6.331 v 1.891 c -1.979,-1.659 -3.843,-2.337 -5.707,-2.337 -2.809,0 -4.553,1.582 -4.553,4.839 v 9.923 H 0 Z"
             style="fill:#231f20;fill-opacity:1;fill-rule:nonzero;stroke:none"
             id="path506" /></g><g
           id="g508"
           transform="translate(227.3887,282.1187)"><path
             d="M 0,0 H 2.882 V 12.774 H 0 v 1.541 h 6.37 v -1.776 c 1.853,1.356 3.744,2.223 5.861,2.223 2.5,0 4.358,-1.582 4.358,-4.617 V 0 h 2.806 V -1.541 H 10.606 V 0 h 2.495 v 9.347 c 0,2.166 -1.172,3.306 -2.798,3.306 -1.173,0 -2.61,-0.609 -3.933,-1.672 L 6.37,0 H 8.979 V -1.541 H 0 Z"
             style="fill:#231f20;fill-opacity:1;fill-rule:nonzero;stroke:none"
             id="path510" /></g><g
           id="g512"
           transform="translate(257.4563,303.9773)"><path
             d="m 0,0 h 2.815 v -9.121 c -1.559,1.334 -3.233,2.02 -4.831,2.02 -3.838,0 -7.051,-3.688 -7.051,-8.123 0,-5.004 3.553,-8.176 9.067,-8.176 h 9.109 v 1.541 H 6.303 v 23.4 L 0,1.541 Z M 2.815,-21.859 H 1.294 c -3.766,0 -6.468,1.782 -6.468,6.635 0,3.866 1.598,6.103 4.261,6.103 1.218,0 2.549,-0.607 3.728,-1.782 z"
             style="fill:#231f20;fill-opacity:1;fill-rule:nonzero;stroke:none"
             id="path514" /></g><g
           id="g516"
           transform="translate(268.9812,293.1532)"><path
             d="m 0,0 c 1.886,1.173 3.254,1.703 4.477,1.703 2.103,0 2.676,-1.287 2.676,-3.141 v -2.121 l -3.516,-0.87 c -3.109,-0.757 -4.392,-2.082 -4.392,-4.429 0,-2.309 1.585,-4.164 3.665,-4.164 1.376,0 2.752,0.947 4.66,2.347 0.834,-1.665 1.668,-2.347 2.882,-2.347 1.099,0 2.274,0.455 3.45,1.287 v 1.05 c -0.341,-0.076 -1.327,-0.228 -1.631,-0.228 -0.948,0 -1.63,0.986 -1.63,2.577 v 6.478 c 0,3.447 -1.896,5.581 -4.979,5.581 -1.911,0 -4.153,-0.953 -6.04,-2.626 z m 7.153,-5.116 v -4.223 c -0.994,-0.794 -1.835,-1.172 -2.599,-1.172 -1.185,0 -2.064,0.907 -2.064,2.118 0,1.534 1.337,2.481 4.663,3.277"
             style="fill:#231f20;fill-opacity:1;fill-rule:nonzero;stroke:none"
             id="path518" /></g><g
           id="g520"
           transform="translate(290.393,280.3748)"><path
             d="m 0,0 c -3.44,0.836 -5.935,4.216 -5.935,8.51 0,4.67 3.137,7.995 7.564,7.995 1.327,0 2.317,-0.225 4.091,-0.977 l 0.309,0.94 H 7.124 V 11.509 H 6.029 c -0.425,2.316 -2.121,3.456 -3.831,3.456 -2.538,0 -4.24,-1.861 -4.24,-5.924 0,-4.669 1.778,-7.175 5.073,-7.175 2.612,0 4.13,1.746 4.51,1.746 0.303,0 0.531,-0.683 0.531,-0.949 0,-0.645 -2.468,-2.906 -6.481,-2.906 l -0.455,-1.06 c 1.479,-0.076 2.54,-1.286 2.54,-2.8 0,-1.741 -1.631,-4.215 -6.625,-3.761 v 1.453 c 2.495,0 3.706,0.454 3.706,1.665 0,0.833 -0.681,1.248 -2.232,1.4 z"
             style="fill:#231f20;fill-opacity:1;fill-rule:nonzero;stroke:none"
             id="path522" /></g><g
           id="g524"
           transform="translate(302.5801,300.3388)"><path
             d="M 0,0 C 0.191,0.837 0.8,1.408 1.485,1.408 2.653,1.391 4.487,0.029 6.24,0.029 c 1.819,0 2.957,1.401 3.45,4.242 H 8.363 C 8.098,3.285 7.528,2.868 6.771,2.868 5.633,2.885 4.035,4.287 2.208,4.287 0.381,4.287 -1.213,2.317 -1.213,0 Z m -1.596,-7.184 c 1.886,1.172 3.254,1.702 4.477,1.702 2.103,0 2.677,-1.287 2.677,-3.139 v -2.118 l -3.518,-0.87 c -3.108,-0.756 -4.39,-2.079 -4.39,-4.424 0,-2.309 1.584,-4.17 3.664,-4.17 1.376,0 2.753,0.949 4.661,2.354 0.834,-1.671 1.667,-2.354 2.88,-2.354 1.1,0 2.276,0.456 3.451,1.291 v 1.041 c -0.341,-0.076 -1.327,-0.227 -1.63,-0.227 -0.948,0 -1.631,0.985 -1.631,2.576 v 6.478 c 0,3.448 -1.895,5.582 -4.978,5.582 -1.912,0 -4.154,-0.953 -6.04,-2.627 z m 7.154,-5.118 v -4.222 c -0.994,-0.794 -1.835,-1.173 -2.6,-1.173 -1.185,0 -2.064,0.908 -2.064,2.118 0,1.534 1.338,2.481 4.664,3.277"
             style="fill:#231f20;fill-opacity:1;fill-rule:nonzero;stroke:none"
             id="path526" /></g><g
           id="g528"
           transform="translate(316.4211,288.5061)"><path
             d="m 0,0 c 0,-4.708 3.817,-8.375 8.719,-8.375 4.901,0 8.718,3.667 8.718,8.375 0,4.707 -3.817,8.374 -8.718,8.374 C 3.817,8.374 0,4.707 0,0 m 3.893,0 c 0,4.29 1.824,6.833 4.826,6.833 3.04,0 4.826,-2.543 4.826,-6.833 0,-4.29 -1.786,-6.833 -4.826,-6.833 -3.002,0 -4.826,2.543 -4.826,6.833"
             style="fill:#231f20;fill-opacity:1;fill-rule:nonzero;stroke:none"
             id="path530" /></g><g
           id="g532"
           transform="translate(189.3968,235.6991)"><path
             d="M 0,0 H 9.07 V 1.541 H 6.294 v 8.575 C 7.435,9.251 8.88,8.8 10.439,8.8 c 5.882,0 7.697,4.808 7.697,8.646 0,5.831 -3.932,8.103 -7.126,8.103 -0.913,0 -1.712,-0.152 -2.472,-0.454 C 7.777,24.802 7.055,24.276 6.294,23.562 v 1.541 H 0 V 23.562 H 2.807 V 1.541 H 0 Z m 6.294,21.759 c 1.331,1.555 2.206,2.087 3.537,2.087 2.7,0 4.412,-2.807 4.412,-7.322 0,-3.49 -1.484,-6.183 -4.146,-6.183 -1.483,0 -2.891,0.873 -3.803,2.276 z"
             style="fill:#231f20;fill-opacity:1;fill-rule:nonzero;stroke:none"
             id="path534" /></g><g
           id="g536"
           transform="translate(210.6995,257.5207)"><path
             d="m 0,0 c 1.886,1.173 3.255,1.703 4.478,1.703 2.103,0 2.676,-1.287 2.676,-3.141 v -2.121 l -3.517,-0.87 c -3.109,-0.757 -4.391,-2.082 -4.391,-4.429 0,-2.309 1.584,-4.163 3.664,-4.163 1.377,0 2.753,0.946 4.661,2.347 0.834,-1.666 1.668,-2.347 2.881,-2.347 1.1,0 2.275,0.454 3.45,1.286 v 1.05 c -0.341,-0.076 -1.326,-0.228 -1.63,-0.228 -0.948,0 -1.631,0.986 -1.631,2.577 v 6.478 c 0,3.447 -1.895,5.581 -4.978,5.581 -1.912,0 -4.153,-0.953 -6.04,-2.626 z m 7.154,-5.116 v -4.223 c -0.994,-0.794 -1.835,-1.172 -2.6,-1.172 -1.185,0 -2.064,0.907 -2.064,2.118 0,1.534 1.338,2.481 4.664,3.277"
             style="fill:#231f20;fill-opacity:1;fill-rule:nonzero;stroke:none"
             id="path538" /></g><g
           id="g540"
           transform="translate(225.6443,246.4863)"><path
             d="M 0,0 H 2.845 V 12.774 H 0 v 1.541 h 6.332 v -2.67 h 0.076 c 1.895,2.356 2.843,3.117 3.867,3.117 0.948,0 1.783,-0.457 2.693,-1.521 -0.304,-1.596 -0.797,-2.888 -1.441,-3.914 -0.91,1.686 -1.441,2.26 -2.503,2.26 C 8,11.587 7.204,10.898 6.332,9.672 V 0 H 9.176 V -1.541 H 0 Z"
             style="fill:#231f20;fill-opacity:1;fill-rule:nonzero;stroke:none"
             id="path542" /></g><g
           id="g544"
           transform="translate(241.1106,257.5207)"><path
             d="m 0,0 c 1.886,1.173 3.254,1.703 4.477,1.703 2.103,0 2.676,-1.287 2.676,-3.141 v -2.121 l -3.517,-0.87 c -3.108,-0.757 -4.39,-2.082 -4.39,-4.429 0,-2.309 1.584,-4.163 3.664,-4.163 1.377,0 2.753,0.946 4.66,2.347 0.834,-1.666 1.669,-2.347 2.881,-2.347 1.1,0 2.276,0.454 3.451,1.286 v 1.05 c -0.341,-0.076 -1.327,-0.228 -1.63,-0.228 -0.948,0 -1.631,0.986 -1.631,2.577 v 6.478 c 0,3.447 -1.895,5.581 -4.978,5.581 -1.912,0 -4.154,-0.953 -6.04,-2.626 z m 7.153,-5.116 v -4.223 c -0.993,-0.794 -1.834,-1.172 -2.599,-1.172 -1.185,0 -2.064,0.907 -2.064,2.118 0,1.534 1.338,2.481 4.663,3.277"
             style="fill:#231f20;fill-opacity:1;fill-rule:nonzero;stroke:none"
             id="path546" /></g><g
           id="g548"
           transform="translate(268.111,257.5207)"><path
             d="m 0,0 c 1.886,1.173 3.254,1.703 4.478,1.703 2.102,0 2.675,-1.287 2.675,-3.141 v -2.121 l -3.516,-0.87 c -3.109,-0.757 -4.392,-2.082 -4.392,-4.429 0,-2.309 1.585,-4.163 3.665,-4.163 1.376,0 2.752,0.946 4.66,2.347 0.834,-1.666 1.668,-2.347 2.882,-2.347 1.099,0 2.274,0.454 3.45,1.286 v 1.05 c -0.342,-0.076 -1.327,-0.228 -1.631,-0.228 -0.948,0 -1.63,0.986 -1.63,2.577 v 6.478 c 0,3.447 -1.896,5.581 -4.979,5.581 -1.911,0 -4.153,-0.953 -6.04,-2.626 z m 7.153,-5.116 v -4.223 c -0.994,-0.794 -1.835,-1.172 -2.6,-1.172 -1.184,0 -2.063,0.907 -2.063,2.118 0,1.534 1.337,2.481 4.663,3.277"
             style="fill:#231f20;fill-opacity:1;fill-rule:nonzero;stroke:none"
             id="path550" /></g><g
           id="g552"
           transform="translate(314.1524,247.2341)"><path
             d="m 0,0 c -2.2,-1.82 -5.013,-2.731 -8.245,-2.731 -6.806,0 -11.53,5.154 -11.53,11.551 0,6.927 4.991,12.044 11.872,12.044 1.901,0 3.727,-0.342 5.476,-0.988 l 0.265,1.275 h 1.404 v -6.615 h -1.669 c -0.648,2.801 -2.699,4.429 -5.628,4.429 -4.372,0 -7.3,-3.823 -7.3,-9.615 0,-6.094 3.308,-10.183 8.25,-10.183 2.206,0 4.488,0.833 7.105,2.764 z"
             style="fill:#231f20;fill-opacity:1;fill-rule:nonzero;stroke:none"
             id="path554" /></g><g
           id="g556"
           transform="translate(322.4279,266.4185)"><path
             d="m 0,0 c 0,-1.178 -0.988,-2.166 -2.166,-2.166 -1.178,0 -2.166,0.988 -2.166,2.166 0,1.178 0.988,2.166 2.166,2.166 C -0.988,2.166 0,1.178 0,0 m -6.334,-19.932 h 2.769 v 12.774 h -2.769 v 1.541 h 6.257 v -14.315 h 2.691 v -1.541 h -8.948 z"
             style="fill:#231f20;fill-opacity:1;fill-rule:nonzero;stroke:none"
             id="path558" /></g><g
           id="g560"
           transform="translate(330.3435,263.7623)"><path
             d="M 0,0 4.059,2.92 8.079,0 H 9.482 L 5.122,6.123 H 2.96 L -1.408,0 Z m 11.189,-9.652 c -0.607,4.602 -3.11,7.138 -7.053,7.138 -4.364,0 -7.218,-3.11 -7.218,-7.932 0,-4.421 2.93,-8.813 8.317,-8.813 2.161,0 3.375,0.417 5.954,2.012 l 0.265,1.7 c -1.896,-1.209 -3.64,-1.814 -5.271,-1.814 -3.375,0 -5.461,3.175 -5.461,7.709 z M 0.722,-8.111 c 0.228,2.717 1.1,4.056 3.186,4.056 2.01,0 3.261,-1.454 3.564,-4.056 z"
             style="fill:#231f20;fill-opacity:1;fill-rule:nonzero;stroke:none"
             id="path562" /></g><g
           id="g564"
           transform="translate(343.2547,246.4863)"><path
             d="M 0,0 H 2.882 V 12.774 H 0 v 1.541 h 6.37 v -1.776 c 1.854,1.356 3.744,2.223 5.862,2.223 2.501,0 4.357,-1.582 4.357,-4.617 V 0 h 2.806 V -1.541 H 10.606 V 0 h 2.495 v 9.347 c 0,2.166 -1.17,3.306 -2.798,3.306 -1.172,0 -2.609,-0.609 -3.933,-1.672 L 6.37,0 H 8.98 V -1.541 H 0 Z"
             style="fill:#231f20;fill-opacity:1;fill-rule:nonzero;stroke:none"
             id="path566" /></g><g
           id="g568"
           transform="translate(377.4366,256.2515)"><path
             d="m 0,0 h -1.096 c -0.418,2.316 -2.094,3.455 -3.806,3.455 -2.55,0 -4.263,-1.86 -4.263,-5.923 0,-4.669 1.789,-7.176 5.1,-7.176 2.589,0 4.103,1.747 4.482,1.747 0.303,0 0.53,-0.683 0.53,-0.949 0,-0.645 -2.613,-2.906 -6.191,-2.906 -4.451,0 -7.814,3.779 -7.814,8.753 0,4.669 3.136,7.995 7.586,7.995 1.33,0 2.32,-0.225 4.072,-0.977 l 0.304,0.94 H 0 Z"
             style="fill:#231f20;fill-opacity:1;fill-rule:nonzero;stroke:none"
             id="path570" /></g><g
           id="g572"
           transform="translate(386.4726,266.4185)"><path
             d="m 0,0 c 0,-1.178 -0.989,-2.166 -2.167,-2.166 -1.177,0 -2.165,0.988 -2.165,2.166 0,1.178 0.988,2.166 2.165,2.166 C -0.989,2.166 0,1.178 0,0 m -6.334,-19.932 h 2.768 v 12.774 h -2.768 v 1.541 h 6.255 v -14.315 h 2.693 v -1.541 h -8.948 z"
             style="fill:#231f20;fill-opacity:1;fill-rule:nonzero;stroke:none"
             id="path574" /></g><g
           id="g576"
           transform="translate(391.9751,257.5207)"><path
             d="m 0,0 c 1.887,1.173 3.255,1.703 4.479,1.703 2.102,0 2.676,-1.287 2.676,-3.141 v -2.121 l -3.518,-0.87 c -3.107,-0.757 -4.391,-2.082 -4.391,-4.429 0,-2.309 1.584,-4.163 3.665,-4.163 1.376,0 2.753,0.946 4.661,2.347 0.833,-1.666 1.667,-2.347 2.881,-2.347 1.099,0 2.275,0.454 3.451,1.286 v 1.05 c -0.342,-0.076 -1.328,-0.228 -1.631,-0.228 -0.948,0 -1.63,0.986 -1.63,2.577 v 6.478 c 0,3.447 -1.897,5.581 -4.979,5.581 -1.913,0 -4.153,-0.953 -6.04,-2.626 z m 7.155,-5.116 v -4.223 c -0.995,-0.794 -1.836,-1.172 -2.6,-1.172 -1.185,0 -2.065,0.907 -2.065,2.118 0,1.534 1.339,2.481 4.665,3.277"
             style="fill:#231f20;fill-opacity:1;fill-rule:nonzero;stroke:none"
             id="path578" /></g><g
           id="g580"
           transform="translate(203.668,217.353)"><path
             d="m 0,0 c -0.608,4.602 -3.11,7.138 -7.054,7.138 -4.364,0 -7.217,-3.11 -7.217,-7.932 0,-4.421 2.928,-8.813 8.317,-8.813 2.161,0 3.374,0.417 5.954,2.011 l 0.265,1.701 c -1.896,-1.209 -3.641,-1.814 -5.271,-1.814 -3.376,0 -5.461,3.175 -5.461,7.709 z m -10.467,1.541 c 0.227,2.717 1.1,4.055 3.185,4.055 2.011,0 3.261,-1.453 3.565,-4.055 z"
             style="fill:#231f20;fill-opacity:1;fill-rule:nonzero;stroke:none"
             id="path582" /></g><g
           id="g584"
           transform="translate(217.5045,220.7633)"><path
             d="m 0,0 c 1.886,1.173 3.254,1.703 4.479,1.703 2.101,0 2.675,-1.287 2.675,-3.141 v -2.121 l -3.517,-0.87 c -3.109,-0.757 -4.391,-2.082 -4.391,-4.429 0,-2.309 1.584,-4.164 3.665,-4.164 1.376,0 2.753,0.947 4.66,2.348 0.834,-1.666 1.668,-2.348 2.88,-2.348 1.1,0 2.275,0.455 3.451,1.287 v 1.05 c -0.342,-0.076 -1.327,-0.228 -1.631,-0.228 -0.946,0 -1.631,0.986 -1.631,2.577 v 6.478 c 0,3.447 -1.894,5.581 -4.976,5.581 -1.913,0 -4.155,-0.953 -6.04,-2.626 z m 7.154,-5.116 v -4.223 c -0.994,-0.794 -1.835,-1.172 -2.599,-1.172 -1.185,0 -2.065,0.907 -2.065,2.118 0,1.534 1.337,2.481 4.664,3.277"
             style="fill:#231f20;fill-opacity:1;fill-rule:nonzero;stroke:none"
             id="path586" /></g><g
           id="g588"
           transform="translate(243.9974,210.0901)"><path
             d="M 0,0 H 3.152 V 18.176 H -2.695 V 15.07 h -1.899 v 6.91 h 1.899 v -1.176 h 15.377 v 1.176 h 1.898 v -6.91 h -1.898 v 3.106 H 6.835 V 0 h 3.15 V -1.898 H 0 Z"
             style="fill:#231f20;fill-opacity:1;fill-rule:nonzero;stroke:none"
             id="path590" /></g><g
           id="g592"
           transform="translate(271.1559,217.353)"><path
             d="m 0,0 c -0.607,4.602 -3.11,7.138 -7.052,7.138 -4.365,0 -7.218,-3.11 -7.218,-7.932 0,-4.421 2.929,-8.813 8.316,-8.813 2.161,0 3.375,0.417 5.954,2.011 l 0.265,1.701 c -1.896,-1.209 -3.64,-1.814 -5.271,-1.814 -3.375,0 -5.461,3.175 -5.461,7.709 z m -10.467,1.541 c 0.228,2.717 1.1,4.055 3.186,4.055 2.009,0 3.261,-1.453 3.564,-4.055 z"
             style="fill:#231f20;fill-opacity:1;fill-rule:nonzero;stroke:none"
             id="path594" /></g><g
           id="g596"
           transform="translate(286.5069,219.4941)"><path
             d="m 0,0 h -1.095 c -0.418,2.316 -2.094,3.455 -3.807,3.455 -2.55,0 -4.263,-1.86 -4.263,-5.923 0,-4.669 1.789,-7.176 5.101,-7.176 2.589,0 4.102,1.747 4.481,1.747 0.304,0 0.531,-0.683 0.531,-0.949 0,-0.645 -2.613,-2.906 -6.192,-2.906 -4.45,0 -7.814,3.779 -7.814,8.753 0,4.669 3.137,7.995 7.586,7.995 1.332,0 2.321,-0.225 4.073,-0.977 l 0.304,0.94 H 0 Z"
             style="fill:#231f20;fill-opacity:1;fill-rule:nonzero;stroke:none"
             id="path598" /></g><g
           id="g600"
           transform="translate(288.6917,209.7289)"><path
             d="M 0,0 H 2.882 V 12.774 H 0 v 1.541 h 6.369 v -1.776 c 1.853,1.356 3.744,2.223 5.862,2.223 2.499,0 4.358,-1.582 4.358,-4.617 V 0 h 2.806 V -1.541 H 10.604 V 0 h 2.497 v 9.347 c 0,2.166 -1.173,3.306 -2.799,3.306 -1.172,0 -2.609,-0.609 -3.933,-1.672 V 0 H 8.977 V -1.541 H 0 Z"
             style="fill:#231f20;fill-opacity:1;fill-rule:nonzero;stroke:none"
             id="path602" /></g><g
           id="g604"
           transform="translate(309.7719,216.1162)"><path
             d="m 0,0 c 0,-4.707 3.818,-8.374 8.719,-8.374 4.902,0 8.719,3.667 8.719,8.374 0,4.707 -3.817,8.374 -8.719,8.374 C 3.818,8.374 0,4.707 0,0 m 3.893,0 c 0,4.29 1.825,6.833 4.826,6.833 3.04,0 4.826,-2.543 4.826,-6.833 0,-4.29 -1.786,-6.833 -4.826,-6.833 -3.001,0 -4.826,2.543 -4.826,6.833"
             style="fill:#231f20;fill-opacity:1;fill-rule:nonzero;stroke:none"
             id="path606" /></g><g
           id="g608"
           transform="translate(329.2772,209.7289)"><path
             d="M 0,0 H 2.807 V 21.859 H 0 v 1.54 H 6.295 V 0 H 8.986 V -1.541 H 0 Z"
             style="fill:#231f20;fill-opacity:1;fill-rule:nonzero;stroke:none"
             id="path610" /></g><g
           id="g612"
           transform="translate(340.1836,216.1162)"><path
             d="m 0,0 c 0,-4.707 3.817,-8.374 8.719,-8.374 4.901,0 8.719,3.667 8.719,8.374 0,4.707 -3.818,8.374 -8.719,8.374 C 3.817,8.374 0,4.707 0,0 m 3.893,0 c 0,4.29 1.824,6.833 4.826,6.833 3.04,0 4.826,-2.543 4.826,-6.833 0,-4.29 -1.786,-6.833 -4.826,-6.833 -3.002,0 -4.826,2.543 -4.826,6.833"
             style="fill:#231f20;fill-opacity:1;fill-rule:nonzero;stroke:none"
             id="path614" /></g><g
           id="g616"
           transform="translate(365.479,206.5505)"><path
             d="m 0,0 c 5.122,-1.445 6.829,-2.205 6.829,-3.612 0,-0.646 -0.492,-1.293 -1.252,-1.559 -0.833,-0.304 -2.276,-0.532 -3.604,-0.532 -2.731,0 -4.552,1.065 -4.552,2.623 0,1.103 0.682,1.902 2.579,3.08 m 10.023,17.494 h -4.93 c -0.495,0 -0.953,0.114 -1.486,0.227 -0.571,0.101 -1.218,0.215 -2.171,0.215 -3.958,0 -6.689,-2.47 -6.689,-6.063 0,-3.025 1.783,-5.069 5.242,-5.981 V 5.816 L -0.588,5.702 c -1.85,-0.494 -2.68,-1.369 -2.68,-2.471 0,-0.951 0.679,-1.863 1.925,-2.661 -3.166,-1.102 -4.643,-2.433 -4.643,-3.992 0,-1.977 2.839,-4.39 7.808,-4.39 4.819,0 7.965,2.034 7.965,5.227 0,0.988 -0.226,1.71 -1.06,2.547 -2.43,2.433 -8.71,2.395 -8.71,4.295 0,0.229 0.076,0.305 0.266,0.495 1.153,1.14 3.973,0.266 6.82,3.115 1.1,1.101 1.669,2.695 1.669,4.176 0,1.442 -0.531,2.733 -1.593,3.91 h 2.844 z M -1.65,11.929 c 0,2.856 1.295,4.595 3.467,4.595 2.133,0 3.352,-1.777 3.352,-4.802 0,-2.874 -1.295,-4.614 -3.352,-4.614 -2.172,0 -3.467,1.823 -3.467,4.821"
             style="fill:#231f20;fill-opacity:1;fill-rule:nonzero;stroke:none"
             id="path618" /></g><g
           id="g620"
           transform="translate(383.2504,229.6611)"><path
             d="m 0,0 c 0,-1.178 -0.988,-2.166 -2.166,-2.166 -1.178,0 -2.166,0.988 -2.166,2.166 0,1.178 0.988,2.166 2.166,2.166 C -0.988,2.166 0,1.178 0,0 m -6.334,-19.932 h 2.768 v 12.774 h -2.768 v 1.541 h 6.255 v -14.315 h 2.693 v -1.541 h -8.948 z"
             style="fill:#231f20;fill-opacity:1;fill-rule:nonzero;stroke:none"
             id="path622" /></g><g
           id="g624"
           transform="translate(388.7531,220.7633)"><path
             d="m 0,0 c 1.887,1.173 3.254,1.703 4.479,1.703 2.101,0 2.675,-1.287 2.675,-3.141 v -2.121 l -3.517,-0.87 c -3.109,-0.757 -4.391,-2.082 -4.391,-4.429 0,-2.309 1.585,-4.164 3.665,-4.164 1.376,0 2.751,0.947 4.66,2.348 0.834,-1.666 1.668,-2.348 2.88,-2.348 1.1,0 2.276,0.455 3.451,1.287 v 1.05 c -0.341,-0.076 -1.327,-0.228 -1.629,-0.228 -0.948,0 -1.631,0.986 -1.631,2.577 v 6.478 c 0,3.447 -1.895,5.581 -4.98,5.581 -1.911,0 -4.153,-0.953 -6.038,-2.626 z m 7.154,-5.116 v -4.223 c -0.994,-0.794 -1.835,-1.172 -2.599,-1.172 -1.185,0 -2.065,0.907 -2.065,2.118 0,1.534 1.339,2.481 4.664,3.277"
             style="fill:#231f20;fill-opacity:1;fill-rule:nonzero;stroke:none"
             id="path626" /></g></g></g></g></svg>
