<?xml version="1.0" encoding="UTF-8" standalone="no"?>
<svg
   xmlns:dc="http://purl.org/dc/elements/1.1/"
   xmlns:cc="http://creativecommons.org/ns#"
   xmlns:rdf="http://www.w3.org/1999/02/22-rdf-syntax-ns#"
   xmlns:svg="http://www.w3.org/2000/svg"
   xmlns="http://www.w3.org/2000/svg"
   xmlns:sodipodi="http://sodipodi.sourceforge.net/DTD/sodipodi-0.dtd"
   xmlns:inkscape="http://www.inkscape.org/namespaces/inkscape"
   width="250.73416mm"
   height="50.231075mm"
   viewBox="0 0 250.73416 50.231075"
   version="1.1"
   id="svg652"
   inkscape:version="1.0.2 (e86c8708, 2021-01-15)"
   sodipodi:docname="lasige_h_logo.svg">
  <defs
     id="defs646">
    <clipPath
       clipPathUnits="userSpaceOnUse"
       id="clipPath670">
      <path
         d="M 0,250.165 H 841.89 V 0 H 0 Z"
         id="path668" />
    </clipPath>
    <clipPath
       clipPathUnits="userSpaceOnUse"
       id="clipPath782">
      <path
         d="M 73.6172,196.267 H 603.448 V 88.5361 H 73.6172 Z"
         id="path780" />
    </clipPath>
    <linearGradient
       x1="0"
       y1="0"
       x2="1"
       y2="0"
       gradientUnits="userSpaceOnUse"
       gradientTransform="matrix(-529.83081,0,0,529.83081,603.44806,142.40176)"
       spreadMethod="pad"
       id="linearGradient800">
      <stop
         style="stop-opacity:1;stop-color:#ce0b10"
         offset="0"
         id="stop788" />
      <stop
         style="stop-opacity:1;stop-color:#e5007e"
         offset="0.141104"
         id="stop790" />
      <stop
         style="stop-opacity:1;stop-color:#f7a900"
         offset="0.361963"
         id="stop792" />
      <stop
         style="stop-opacity:1;stop-color:#65b22e"
         offset="0.564417"
         id="stop794" />
      <stop
         style="stop-opacity:1;stop-color:#47c0f0"
         offset="0.760736"
         id="stop796" />
      <stop
         style="stop-opacity:1;stop-color:#642482"
         offset="1"
         id="stop798" />
    </linearGradient>
    <clipPath
       clipPathUnits="userSpaceOnUse"
       id="clipPath822">
      <path
         d="M 73.606,196.265 H 587.592 V 88.5222 H 73.606 Z"
         id="path820" />
    </clipPath>
    <linearGradient
       x1="0"
       y1="0"
       x2="1"
       y2="0"
       gradientUnits="userSpaceOnUse"
       gradientTransform="matrix(-513.98553,0,0,513.98553,587.59161,142.39343)"
       spreadMethod="pad"
       id="linearGradient840">
      <stop
         style="stop-opacity:1;stop-color:#ce0b10"
         offset="0"
         id="stop828" />
      <stop
         style="stop-opacity:1;stop-color:#e5007e"
         offset="0.141104"
         id="stop830" />
      <stop
         style="stop-opacity:1;stop-color:#f7a900"
         offset="0.361963"
         id="stop832" />
      <stop
         style="stop-opacity:1;stop-color:#65b22e"
         offset="0.564417"
         id="stop834" />
      <stop
         style="stop-opacity:1;stop-color:#47c0f0"
         offset="0.760736"
         id="stop836" />
      <stop
         style="stop-opacity:1;stop-color:#642482"
         offset="1"
         id="stop838" />
    </linearGradient>
    <clipPath
       clipPathUnits="userSpaceOnUse"
       id="clipPath862">
      <path
         d="M 73.6172,196.284 H 567.631 V 88.5207 H 73.6172 Z"
         id="path860" />
    </clipPath>
    <linearGradient
       x1="0"
       y1="0"
       x2="1"
       y2="0"
       gradientUnits="userSpaceOnUse"
       gradientTransform="matrix(-494.01401,0,0,494.01401,567.63129,142.40221)"
       spreadMethod="pad"
       id="linearGradient880">
      <stop
         style="stop-opacity:1;stop-color:#ce0b10"
         offset="0"
         id="stop868" />
      <stop
         style="stop-opacity:1;stop-color:#e5007e"
         offset="0.141104"
         id="stop870" />
      <stop
         style="stop-opacity:1;stop-color:#f7a900"
         offset="0.361963"
         id="stop872" />
      <stop
         style="stop-opacity:1;stop-color:#65b22e"
         offset="0.564417"
         id="stop874" />
      <stop
         style="stop-opacity:1;stop-color:#47c0f0"
         offset="0.760736"
         id="stop876" />
      <stop
         style="stop-opacity:1;stop-color:#642482"
         offset="1"
         id="stop878" />
    </linearGradient>
  </defs>
  <sodipodi:namedview
     id="base"
     pagecolor="#ffffff"
     bordercolor="#666666"
     borderopacity="1.0"
     inkscape:pageopacity="0.0"
     inkscape:pageshadow="2"
     inkscape:zoom="0.35"
     inkscape:cx="359.54261"
     inkscape:cy="557.78201"
     inkscape:document-units="mm"
     inkscape:current-layer="layer1"
     inkscape:document-rotation="0"
     showgrid="false"
     fit-margin-top="0"
     fit-margin-left="0"
     fit-margin-right="0"
     fit-margin-bottom="0"
     inkscape:window-width="1252"
     inkscape:window-height="943"
     inkscape:window-x="269"
     inkscape:window-y="102"
     inkscape:window-maximized="0" />
  <metadata
     id="metadata649">
    <rdf:RDF>
      <cc:Work
         rdf:about="">
        <dc:format>image/svg+xml</dc:format>
        <dc:type
           rdf:resource="http://purl.org/dc/dcmitype/StillImage" />
        <dc:title></dc:title>
      </cc:Work>
    </rdf:RDF>
  </metadata>
  <g
     inkscape:label="Layer 1"
     inkscape:groupmode="layer"
     id="layer1"
     transform="translate(-10.704352,-0.58684419)">
    <g
       id="g666"
       clip-path="url(#clipPath670)"
       transform="matrix(0.35277777,0,0,-0.35277777,-15.262209,69.831476)">
      <g
         id="g672"
         transform="translate(619.958,94.9092)">
        <path
           d="m 0,0 c 0,-2.061 1.785,-4.087 3.88,-4.087 2.234,0 3.916,2.232 3.916,3.159 v 4.43 c 0,2.507 -1.958,4.019 -3.88,4.019 C 1.751,7.521 0,5.528 0,3.502 Z M 10.646,18.716 V -5.358 c 0,-0.515 -0.583,-1.031 -1.407,-1.031 -0.722,0 -1.305,0.516 -1.305,1.031 v 1.373 c -0.722,-1.408 -2.576,-2.678 -4.74,-2.678 -3.229,0 -6.045,3.194 -6.045,6.663 v 3.502 c 0,3.606 2.782,6.595 6.147,6.595 2.198,0 3.745,-1.271 4.5,-2.611 v 11.23 c 0,0.585 0.652,0.997 1.443,0.997 0.824,0 1.407,-0.412 1.407,-0.997"
           style="fill:#575756;fill-opacity:1;fill-rule:nonzero;stroke:none"
           id="path674" />
      </g>
      <g
         id="g676"
         transform="translate(645.3408,102.4297)">
        <path
           d="m 0,0 c -2.198,0 -4.362,-1.923 -4.362,-5.048 v -7.831 c 0,-0.515 -0.653,-1.03 -1.442,-1.03 -0.825,0 -1.409,0.515 -1.409,1.03 V 1.374 c 0,0.584 0.584,0.996 1.409,0.996 0.721,0 1.304,-0.412 1.304,-0.996 V -0.24 c 0.756,1.408 2.371,2.816 4.5,2.816 h 1.167 c 0.584,0 1.1,-0.618 1.1,-1.305 C 2.267,0.583 1.751,0 1.167,0 Z"
           style="fill:#575756;fill-opacity:1;fill-rule:nonzero;stroke:none"
           id="path678" />
      </g>
      <g
         id="g680"
         transform="translate(656.23,103.8032)">
        <path
           d="m 0,0 v -14.252 c 0,-0.515 -0.653,-1.031 -1.442,-1.031 -0.791,0 -1.409,0.516 -1.409,1.031 V 0 c 0,0.584 0.618,0.997 1.409,0.997 C -0.653,0.997 0,0.584 0,0 m 0.309,7.11 c 0,-0.859 -0.791,-1.649 -1.751,-1.649 -0.997,0 -1.787,0.79 -1.787,1.649 0,0.859 0.79,1.614 1.787,1.614 0.96,0 1.751,-0.755 1.751,-1.614"
           style="fill:#575756;fill-opacity:1;fill-rule:nonzero;stroke:none"
           id="path682" />
      </g>
      <g
         id="g684"
         transform="translate(662.2412,103.0825)">
        <path
           d="m 0,0 c -0.034,0.103 -0.138,0.377 -0.138,0.55 0,0.686 1.065,1.236 1.821,1.236 0.412,0 0.79,-0.172 0.926,-0.55 L 6.972,-10.44 11.265,1.099 c 0.172,0.412 0.412,0.687 0.927,0.687 0.652,0 1.854,-0.55 1.854,-1.236 C 14.046,0.343 13.977,0.137 13.91,0 L 8.276,-14.253 c -0.171,-0.378 -0.755,-0.618 -1.304,-0.618 -0.618,0 -1.167,0.206 -1.34,0.618 z"
           style="fill:#575756;fill-opacity:1;fill-rule:nonzero;stroke:none"
           id="path686" />
      </g>
      <g
         id="g688"
         transform="translate(690.749,97.7593)">
        <path
           d="m 0,0 c 1.202,0 1.511,0.206 1.511,1.099 0,2.026 -1.649,3.88 -3.915,3.88 -2.165,0 -3.95,-1.647 -3.95,-3.743 V 0 Z m 4.223,0.927 c 0,-2.747 -1.51,-2.85 -3.056,-2.85 h -7.521 v -1.031 c 0,-2.541 2.027,-4.155 4.876,-4.155 2.576,0 3.298,1.339 4.156,1.339 0.687,0 1.169,-0.79 1.169,-1.305 0,-0.892 -2.096,-2.438 -5.427,-2.438 -4.465,0 -7.625,2.678 -7.625,6.663 v 3.606 c 0,3.502 3.058,6.491 6.834,6.491 3.504,0 6.594,-2.645 6.594,-6.32"
           style="fill:#575756;fill-opacity:1;fill-rule:nonzero;stroke:none"
           id="path690" />
      </g>
      <g
         id="g692"
         transform="translate(704.4199,89.5508)">
        <path
           d="m 0,0 c 0,-0.515 -0.687,-1.03 -1.442,-1.03 -0.825,0 -1.409,0.515 -1.409,1.03 v 14.252 c 0,0.585 0.584,0.997 1.409,0.997 0.687,0 1.304,-0.412 1.304,-0.997 v -1.407 c 0.687,1.339 2.303,2.61 4.603,2.61 3.263,0 6.045,-2.988 6.045,-6.594 V 0 c 0,-0.687 -0.722,-1.03 -1.443,-1.03 -0.686,0 -1.408,0.343 -1.408,1.03 v 8.861 c 0,2.026 -1.785,4.018 -3.916,4.018 C 1.889,12.879 0,11.368 0,8.861 Z"
           style="fill:#575756;fill-opacity:1;fill-rule:nonzero;stroke:none"
           id="path694" />
      </g>
      <g
         id="g696"
         transform="translate(743.2676,98.4116)">
        <path
           d="m 0,0 c 0,2.026 -1.751,4.018 -3.916,4.018 -1.922,0 -3.88,-1.511 -3.88,-4.018 v -4.43 c 0,-0.927 1.683,-3.16 3.916,-3.16 2.093,0 3.88,2.027 3.88,4.088 z M -7.796,15.214 V 3.984 c 0.755,1.339 2.3,2.61 4.499,2.61 3.366,0 6.148,-2.988 6.148,-6.594 v -3.502 c 0,-3.47 -2.817,-6.664 -6.045,-6.664 -2.164,0 -4.018,1.271 -4.74,2.679 v -1.374 c 0,-0.514 -0.583,-1.03 -1.304,-1.03 -0.825,0 -1.409,0.516 -1.409,1.03 v 24.075 c 0,0.584 0.584,0.996 1.409,0.996 0.789,0 1.442,-0.412 1.442,-0.996"
           style="fill:#575756;fill-opacity:1;fill-rule:nonzero;stroke:none"
           id="path698" />
      </g>
      <g
         id="g700"
         transform="translate(751.3745,103.2544)">
        <path
           d="m 0,0 c -0.067,0.103 -0.136,0.24 -0.136,0.378 0,0.755 1.098,1.373 1.853,1.373 0.413,0 0.791,-0.172 0.928,-0.584 l 4.533,-11.951 4.087,11.951 c 0.172,0.412 0.516,0.584 0.893,0.584 0.687,0 1.854,-0.584 1.854,-1.408 C 14.012,0.24 13.979,0.103 13.91,0 L 8.689,-13.978 c -1.442,-3.847 -3.125,-8.621 -7.452,-8.621 -0.756,0 -1.34,0.241 -1.34,1.271 0,0.653 0.207,1.237 0.825,1.237 1.991,0 4.258,2.472 4.98,6.182 z"
           style="fill:#575756;fill-opacity:1;fill-rule:nonzero;stroke:none"
           id="path702" />
      </g>
      <g
         id="g704"
         transform="translate(626.312,63.4102)">
        <path
           d="m 0,0 c 1.202,0 1.511,0.206 1.511,1.099 0,2.026 -1.649,3.88 -3.916,3.88 -2.164,0 -3.949,-1.647 -3.949,-3.743 V 0 Z m 4.223,0.927 c 0,-2.747 -1.51,-2.85 -3.056,-2.85 h -7.521 v -1.031 c 0,-2.541 2.027,-4.155 4.876,-4.155 2.576,0 3.298,1.339 4.156,1.339 0.687,0 1.169,-0.79 1.169,-1.305 0,-0.892 -2.096,-2.438 -5.427,-2.438 -4.465,0 -7.625,2.678 -7.625,6.663 v 3.606 c 0,3.502 3.058,6.491 6.834,6.491 3.504,0 6.594,-2.645 6.594,-6.32"
           style="fill:#575756;fill-opacity:1;fill-rule:nonzero;stroke:none"
           id="path706" />
      </g>
      <g
         id="g708"
         transform="translate(636.1025,55.8887)">
        <path
           d="m 0,0 4.43,6.525 -4.259,6.25 c -0.102,0.138 -0.206,0.344 -0.206,0.551 0,0.686 1.064,1.442 1.82,1.442 0.207,0 0.55,-0.103 0.756,-0.413 l 3.777,-5.907 3.848,5.907 c 0.171,0.275 0.515,0.413 0.755,0.413 0.687,0 1.787,-0.756 1.787,-1.442 0,-0.173 -0.036,-0.344 -0.173,-0.551 L 8.208,6.525 12.672,0 c 0.103,-0.137 0.172,-0.343 0.172,-0.583 0,-0.619 -0.996,-1.409 -1.752,-1.409 -0.274,0 -0.617,0.138 -0.789,0.412 L 6.318,4.499 2.369,-1.58 C 2.198,-1.854 1.854,-1.992 1.58,-1.992 c -0.653,0 -1.751,0.756 -1.751,1.409 0,0.205 0.068,0.412 0.171,0.583"
           style="fill:#575756;fill-opacity:1;fill-rule:nonzero;stroke:none"
           id="path710" />
      </g>
      <g
         id="g712"
         transform="translate(654.3408,60.5601)">
        <path
           d="m 0,0 v 3.434 c 0,3.709 2.129,6.663 6.834,6.663 3.022,0 5.049,-1.34 5.049,-2.37 0,-0.584 -0.515,-1.409 -1.202,-1.409 -0.687,0 -1.271,1.203 -3.64,1.203 -2.816,0 -4.19,-1.546 -4.19,-4.087 L 2.851,0 c 0,-2.542 1.34,-4.087 4.225,-4.087 2.472,0 2.987,1.236 3.743,1.236 0.755,0 1.271,-0.79 1.271,-1.374 0,-1.065 -2.13,-2.438 -5.221,-2.438 C 2.129,-6.663 0,-3.778 0,0"
           style="fill:#575756;fill-opacity:1;fill-rule:nonzero;stroke:none"
           id="path714" />
      </g>
      <g
         id="g716"
         transform="translate(681.0977,63.4102)">
        <path
           d="m 0,0 c 1.202,0 1.511,0.206 1.511,1.099 0,2.026 -1.649,3.88 -3.914,3.88 -2.164,0 -3.951,-1.647 -3.951,-3.743 V 0 Z m 4.225,0.927 c 0,-2.747 -1.512,-2.85 -3.057,-2.85 h -7.522 v -1.031 c 0,-2.541 2.026,-4.155 4.878,-4.155 2.576,0 3.296,1.339 4.156,1.339 0.686,0 1.167,-0.79 1.167,-1.305 0,-0.892 -2.096,-2.438 -5.427,-2.438 -4.463,0 -7.624,2.678 -7.624,6.663 v 3.606 c 0,3.502 3.057,6.491 6.834,6.491 3.503,0 6.595,-2.645 6.595,-6.32"
           style="fill:#575756;fill-opacity:1;fill-rule:nonzero;stroke:none"
           id="path718" />
      </g>
      <g
         id="g720"
         transform="translate(695.0791,79.2764)">
        <path
           d="m 0,0 v -24.075 c 0,-0.514 -0.653,-1.03 -1.442,-1.03 -0.825,0 -1.409,0.516 -1.409,1.03 V 0 c 0,0.584 0.584,0.997 1.409,0.997 C -0.653,0.997 0,0.584 0,0"
           style="fill:#575756;fill-opacity:1;fill-rule:nonzero;stroke:none"
           id="path722" />
      </g>
      <g
         id="g724"
         transform="translate(706.0352,79.2764)">
        <path
           d="m 0,0 v -24.075 c 0,-0.514 -0.652,-1.03 -1.442,-1.03 -0.825,0 -1.408,0.516 -1.408,1.03 L -2.85,0 c 0,0.584 0.583,0.997 1.408,0.997 C -0.652,0.997 0,0.584 0,0"
           style="fill:#575756;fill-opacity:1;fill-rule:nonzero;stroke:none"
           id="path726" />
      </g>
      <g
         id="g728"
         transform="translate(722.4185,63.4102)">
        <path
           d="m 0,0 c 1.202,0 1.511,0.206 1.511,1.099 0,2.026 -1.649,3.88 -3.914,3.88 -2.164,0 -3.951,-1.647 -3.951,-3.743 V 0 Z m 4.225,0.927 c 0,-2.747 -1.512,-2.85 -3.057,-2.85 h -7.522 v -1.031 c 0,-2.541 2.027,-4.155 4.878,-4.155 2.576,0 3.296,1.339 4.156,1.339 0.687,0 1.167,-0.79 1.167,-1.305 0,-0.892 -2.096,-2.438 -5.427,-2.438 -4.463,0 -7.624,2.678 -7.624,6.663 v 3.606 c 0,3.502 3.057,6.491 6.834,6.491 3.503,0 6.595,-2.645 6.595,-6.32"
           style="fill:#575756;fill-opacity:1;fill-rule:nonzero;stroke:none"
           id="path730" />
      </g>
      <g
         id="g732"
         transform="translate(736.0908,55.2017)">
        <path
           d="m 0,0 c 0,-0.515 -0.687,-1.03 -1.442,-1.03 -0.825,0 -1.409,0.515 -1.409,1.03 v 14.253 c 0,0.584 0.584,0.996 1.409,0.996 0.687,0 1.304,-0.412 1.304,-0.996 v -1.408 c 0.687,1.339 2.301,2.61 4.601,2.61 3.265,0 6.045,-2.988 6.045,-6.594 V 0 c 0,-0.687 -0.72,-1.03 -1.442,-1.03 -0.687,0 -1.407,0.343 -1.407,1.03 v 8.861 c 0,2.026 -1.787,4.018 -3.916,4.018 C 1.889,12.879 0,11.368 0,8.861 Z"
           style="fill:#575756;fill-opacity:1;fill-rule:nonzero;stroke:none"
           id="path734" />
      </g>
      <g
         id="g736"
         transform="translate(753.3687,60.5601)">
        <path
           d="m 0,0 v 3.434 c 0,3.709 2.129,6.663 6.834,6.663 3.022,0 5.049,-1.34 5.049,-2.37 0,-0.584 -0.515,-1.409 -1.202,-1.409 -0.687,0 -1.271,1.203 -3.64,1.203 C 4.225,7.521 2.85,5.975 2.85,3.434 V 0 c 0,-2.542 1.339,-4.087 4.224,-4.087 2.473,0 2.989,1.236 3.745,1.236 0.754,0 1.269,-0.79 1.269,-1.374 0,-1.065 -2.129,-2.438 -5.22,-2.438 C 2.129,-6.663 0,-3.778 0,0"
           style="fill:#575756;fill-opacity:1;fill-rule:nonzero;stroke:none"
           id="path738" />
      </g>
      <g
         id="g740"
         transform="translate(780.1255,63.4102)">
        <path
           d="m 0,0 c 1.202,0 1.511,0.206 1.511,1.099 0,2.026 -1.649,3.88 -3.916,3.88 -2.164,0 -3.949,-1.647 -3.949,-3.743 V 0 Z m 4.223,0.927 c 0,-2.747 -1.51,-2.85 -3.056,-2.85 h -7.521 v -1.031 c 0,-2.541 2.027,-4.155 4.876,-4.155 2.576,0 3.298,1.339 4.156,1.339 0.687,0 1.169,-0.79 1.169,-1.305 0,-0.892 -2.096,-2.438 -5.427,-2.438 -4.465,0 -7.625,2.678 -7.625,6.663 v 3.606 c 0,3.502 3.058,6.491 6.834,6.491 3.504,0 6.594,-2.645 6.594,-6.32"
           style="fill:#575756;fill-opacity:1;fill-rule:nonzero;stroke:none"
           id="path742" />
      </g>
      <g
         id="g744"
         transform="translate(464.5376,148.1489)">
        <path
           d="m 0,0 h -8.446 c -2.492,0 -4.509,-2.017 -4.509,-4.507 0,-2.492 2.017,-4.508 4.509,-4.508 L 8.511,-9.029 h 0.011 8.009 v -0.655 c 0,-2.49 2.013,-4.508 4.505,-4.508 2.492,0 4.508,2.018 4.508,4.508 v 4.683 c 0.018,0.157 0.026,0.317 0.026,0.48 0,1.721 -0.964,3.215 -2.382,3.975 -0.638,0.347 -1.371,0.545 -2.152,0.545 -0.087,0 -0.174,-0.009 -0.261,-0.015 H 8.522 Z"
           style="fill:#575756;fill-opacity:1;fill-rule:nonzero;stroke:none"
           id="path746" />
      </g>
      <g
         id="g748"
         transform="translate(553.3701,148.1333)">
        <path
           d="m 0,0 c -2.489,0 -4.508,-2.017 -4.508,-4.508 0,-2.49 2.019,-4.506 4.508,-4.506 h 12.542 0.011 8.5 c 0.096,0 0.188,0.009 0.281,0.014 h 8.177 c 2.491,0 4.508,2.017 4.508,4.507 0,2.492 -2.017,4.509 -4.508,4.509 z"
           style="fill:#575756;fill-opacity:1;fill-rule:nonzero;stroke:none"
           id="path750" />
      </g>
      <g
         id="g752"
         transform="translate(381.8955,101.0781)">
        <path
           d="m 0,0 c 2.495,0 4.52,2.026 4.52,4.521 v 73.565 c 0,2.494 -2.025,4.519 -4.52,4.519 -2.494,0 -4.52,-2.025 -4.52,-4.519 V 4.521 C -4.52,2.026 -2.494,0 0,0"
           style="fill:#575756;fill-opacity:1;fill-rule:nonzero;stroke:none"
           id="path754" />
      </g>
      <g
         id="g756"
         transform="translate(135.5347,110.7759)">
        <path
           d="M 0,0 H -7.531 C -7.542,0 -7.553,0.001 -7.567,0.001 H -36.3 c -2.272,0 -3.536,1.069 -3.744,3.144 v 65.319 c 0,2.494 -2.028,4.521 -4.522,4.521 -2.495,0 -4.52,-2.027 -4.52,-4.521 V -4.52 c 0,-2.494 2.025,-4.521 4.52,-4.521 H 0 c 2.494,0 4.52,2.027 4.52,4.521 C 4.52,-2.025 2.494,0 0,0"
           style="fill:#575756;fill-opacity:1;fill-rule:nonzero;stroke:none"
           id="path758" />
      </g>
      <g
         id="g760"
         transform="translate(302.6021,146.9184)">
        <path
           d="M 0,0 H -13.081 L -13.5,-0.01 h -8.238 c -7.694,0 -13.952,6.136 -13.952,13.678 0,7.542 6.258,13.677 13.952,13.677 H 2.736 c 2.506,0 4.545,2 4.545,4.457 0,2.417 -1.857,4.457 -4.056,4.457 h -24.963 c -12.705,0 -23.042,-10.134 -23.042,-22.591 0,-12.457 10.337,-22.59 23.042,-22.59 h 10.612 l 0.418,0.008 H 0 c 7.691,0 13.949,-6.136 13.949,-13.678 0,-7.542 -6.258,-13.677 -13.949,-13.677 h -19.539 c -2.505,0 -4.545,-1.999 -4.545,-4.456 0,-2.275 1.733,-4.176 4.034,-4.428 v -0.03 H 0 c 12.705,0 23.039,10.135 23.039,22.591 C 23.039,-10.134 12.705,0 0,0"
           style="fill:#575756;fill-opacity:1;fill-rule:nonzero;stroke:none"
           id="path762" />
      </g>
      <g
         id="g764"
         transform="translate(590.6338,110.769)">
        <path
           d="m 0,0 h -44.03 c -2.017,0.151 -3.124,1.264 -3.27,3.289 v 56.894 c 0.121,1.411 0.933,2.691 2.393,3.182 H 0 c 2.494,0 4.522,2.026 4.522,4.521 0,2.493 -2.028,4.52 -4.522,4.52 h -51.822 c -2.494,0 -4.52,-1.824 -4.52,-4.317 v -0.01 -0.215 -72.399 c 0,-2.494 2.026,-4.52 4.52,-4.52 0.053,0 0.101,0.012 0.155,0.014 H 0 c 2.494,0 4.522,2.028 4.522,4.523 C 4.522,-2.025 2.494,0 0,0"
           style="fill:#575756;fill-opacity:1;fill-rule:nonzero;stroke:none"
           id="path766" />
      </g>
      <g
         id="g768"
         transform="translate(198.5532,181.0473)">
        <path
           d="m 0,0 c -0.595,1.361 -1.806,2.318 -3.219,2.615 -0.011,0.003 -0.025,0.004 -0.036,0.007 -0.13,0.025 -0.259,0.045 -0.388,0.061 -0.028,0.002 -0.056,0.005 -0.085,0.008 -0.14,0.014 -0.28,0.022 -0.42,0.022 h -0.009 -0.006 c -0.14,0 -0.28,-0.008 -0.421,-0.022 C -4.612,2.688 -4.64,2.685 -4.668,2.683 -4.797,2.667 -4.927,2.647 -5.056,2.622 -5.067,2.619 -5.081,2.618 -5.092,2.615 -6.505,2.318 -7.716,1.361 -8.312,0 l -32.364,-73.537 c -0.489,-1.107 -0.514,-2.339 -0.076,-3.469 0.441,-1.131 1.292,-2.019 2.401,-2.507 0.579,-0.256 1.194,-0.384 1.821,-0.384 1.803,0 3.435,1.065 4.157,2.711 l 26.252,59.724 c 0.301,0.608 0.857,1.037 1.509,1.173 0.006,0.001 0.011,0.001 0.017,0.002 0.061,0.013 0.123,0.023 0.188,0.03 0.011,0.002 0.025,0.003 0.039,0.004 0.068,0.007 0.135,0.012 0.202,0.012 l 0.003,-0.002 0.003,0.002 c 0.07,0 0.138,-0.005 0.205,-0.012 0.014,-0.001 0.028,-0.002 0.039,-0.004 0.065,-0.007 0.127,-0.017 0.188,-0.03 0.006,-0.001 0.012,-0.001 0.018,-0.002 0.592,-0.125 1.112,-0.49 1.424,-1.016 l 26.294,-59.877 c 0.722,-1.646 2.354,-2.71 4.158,-2.71 0.626,0 1.241,0.128 1.819,0.383 1.11,0.488 1.961,1.377 2.402,2.508 0.438,1.128 0.135,3.06 -0.351,4.165 z"
           style="fill:#575756;fill-opacity:1;fill-rule:nonzero;stroke:none"
           id="path770" />
      </g>
      <g
         id="g772"
         transform="translate(485.2339,128.7939)">
        <path
           d="m 0,0 c -2.492,0 -4.52,-2.022 -4.52,-4.51 v -0.616 l -0.014,0.043 v -9.195 c 0,-2.272 -1.07,-3.539 -3.146,-3.745 h -18.859 c -17.193,0.393 -31.069,14.44 -31.069,31.689 0,17.47 14.269,31.683 31.802,31.683 h 0.388 11.345 c 2.494,0 4.52,2.02 4.52,4.508 0,2.488 -2.026,4.51 -4.52,4.51 h -11.345 -0.388 -0.017 l -0.019,-10e-4 c -22.503,-0.021 -40.806,-18.271 -40.806,-40.7 0,-21.506 16.797,-39.128 37.988,-40.601 0.309,-0.067 0.63,-0.108 0.958,-0.108 h 1.163 c 0.247,-0.003 0.489,-0.037 0.733,-0.037 0.601,0 1.236,0.012 1.846,0.037 h 23.952 c 2.494,0 4.522,2.021 4.522,4.51 0,0.111 -0.025,0.216 -0.034,0.324 0.011,0.139 0.042,0.274 0.042,0.417 V -4.51 C 4.522,-2.022 2.494,0 0,0"
           style="fill:#575756;fill-opacity:1;fill-rule:nonzero;stroke:none"
           id="path774" />
      </g>
      <g
         id="g776">
        <g
           id="g778" />
        <g
           id="g814">
          <g
             clip-path="url(#clipPath782)"
             opacity="0.300003"
             id="g812">
            <g
               id="g810">
              <g
                 id="g808">
                <g
                   id="g806">
                  <g
                     id="g804">
                    <path
                       d="m 213.621,92.005 c 0.935,-2.028 1.927,-3.394 3.926,-3.394 h 16.668 c 2.186,0 3.97,1.768 3.97,3.954 0,2.201 -1.784,3.97 -3.97,3.97 h -13.921 l -5.782,13.159 c 0.777,-1.97 -0.143,-4.214 -2.099,-5.076 -0.518,-0.231 -1.064,-0.331 -1.597,-0.331 -1.524,0 -2.957,0.878 -3.605,2.374 z m 212.243,81.721 c -0.786,-0.847 -1.854,-1.28 -2.927,-1.28 -0.969,0 -1.938,0.35 -2.705,1.059 -1.615,1.495 -1.713,4.016 -0.219,5.631 l -0.003,0.012 c -4.584,-4.95 -8.194,-10.738 -10.637,-17.122 -0.787,-2.056 0.241,-4.359 2.297,-5.146 0.47,-0.179 0.95,-0.264 1.425,-0.264 1.603,0 3.114,0.975 3.721,2.562 2.09,5.464 5.188,10.395 9.048,14.548 m -57.898,5.535 c 2.202,0 3.986,1.785 3.986,3.986 v 5.033 h -0.135 c -2.199,0 -3.983,1.785 -3.983,3.985 0,2.202 1.784,3.985 3.983,3.985 h -3.525 c -0.107,0.009 -0.216,0.018 -0.326,0.018 -2.202,0 -3.986,-1.786 -3.986,-3.986 v -9.035 c 0,-2.201 1.784,-3.986 3.986,-3.986 m 0,-38.977 c 2.202,0 3.986,-1.784 3.986,-3.985 v 20.181 c 0,2.201 -1.784,3.985 -3.986,3.985 -2.202,0 -3.986,-1.784 -3.986,-3.985 v -20.181 c 0,2.201 1.784,3.985 3.986,3.985 M 281.353,92.606 c 0,2.228 1.806,4.036 4.033,4.036 H 263.4 c -2.227,0 -4.033,-1.808 -4.033,-4.036 0,-2.227 1.806,-4.035 4.033,-4.035 h 21.986 c -2.227,0 -4.033,1.808 -4.033,4.035 m 318.129,3.86 h -15.845 c 2.191,0 3.966,-1.774 3.966,-3.964 0,-2.19 -1.775,-3.966 -3.966,-3.966 h 15.845 c 2.191,0 3.966,1.776 3.966,3.966 0,2.19 -1.775,3.964 -3.966,3.964 m -73.288,13.799 c -2.189,0 -3.964,1.775 -3.964,3.966 v -13.597 c 0,-2.191 1.775,-3.967 3.964,-3.967 2.194,0 3.966,1.776 3.966,3.967 v 13.597 c 0,-2.191 -1.772,-3.966 -3.966,-3.966 M 486.178,96.559 h -12.573 c 2.202,0 3.986,-1.786 3.986,-3.985 0,-2.202 -1.784,-3.986 -3.986,-3.986 h 12.573 c 2.202,0 3.986,1.784 3.986,3.986 0,2.199 -1.784,3.985 -3.986,3.985 m -175.345,95.739 c 0,-2.192 -1.776,-3.967 -3.967,-3.967 h 8.497 v -10.15 c 0,-2.191 1.775,-3.967 3.964,-3.967 2.194,0 3.966,1.776 3.966,3.967 v 14.116 0.001 c 0,0.122 -0.006,0.244 -0.017,0.361 -0.003,0.016 -0.003,0.03 -0.003,0.044 -0.002,0.039 -0.011,0.076 -0.017,0.114 -0.256,1.945 -1.913,3.446 -3.929,3.446 h -12.461 c 2.191,0 3.967,-1.776 3.967,-3.965 m 255.602,-0.026 c 0,-2.192 -1.776,-3.965 -3.967,-3.965 h 17.511 c 2.191,0 3.967,1.773 3.967,3.965 0,2.191 -1.776,3.966 -3.967,3.966 h -17.511 c 2.191,0 3.967,-1.775 3.967,-3.966 m -393.387,-19.486 -3.711,-8.396 c -0.876,-2.007 0.043,-4.345 2.054,-5.221 0.52,-0.223 1.065,-0.331 1.595,-0.327 1.526,0.003 2.975,0.892 3.624,2.382 l 3.415,7.836 c -0.735,-1.151 -2.005,-1.819 -3.325,-1.827 -0.534,0 -1.076,0.106 -1.596,0.332 -2.008,0.876 -2.927,3.213 -2.056,5.221 m -95.465,-27.24 c -2.19,0 -3.966,1.777 -3.966,3.967 v -18.427 c 0,-2.191 1.776,-3.968 3.966,-3.968 2.191,0 3.967,1.777 3.967,3.968 v 18.427 c 0,-2.19 -1.776,-3.967 -3.967,-3.967 m 170.688,2.117 c 1.768,-4.487 4.456,-8.605 7.97,-12.118 l 2.28,-2.282 c 0.778,-0.778 1.798,-1.167 2.818,-1.167 1.019,0 2.042,0.389 2.82,1.167 1.553,1.556 1.553,4.08 0,5.636 l -2.284,2.282 c -2.708,2.708 -4.783,5.882 -6.157,9.339 0.741,-2.027 -0.261,-4.285 -2.281,-5.079 -0.477,-0.187 -0.972,-0.276 -1.458,-0.276 -1.589,0 -3.092,0.959 -3.71,2.529 z M 140.366,92.591 c 0,-2.191 -1.775,-3.966 -3.966,-3.966 h -10.444 c 2.191,0 3.966,1.775 3.966,3.966 0,2.191 -1.775,3.966 -3.966,3.966 H 136.4 c 2.191,0 3.966,-1.775 3.966,-3.966"
                       style="fill:url(#linearGradient800);stroke:none"
                       id="path802" />
                  </g>
                </g>
              </g>
            </g>
          </g>
        </g>
      </g>
      <g
         id="g816">
        <g
           id="g818" />
        <g
           id="g854">
          <g
             clip-path="url(#clipPath822)"
             opacity="0.600006"
             id="g852">
            <g
               id="g850">
              <g
                 id="g848">
                <g
                   id="g846">
                  <g
                     id="g844">
                    <path
                       d="m 212.426,104.619 c -0.518,-0.23 -1.064,-0.331 -1.596,-0.331 -1.525,0 -2.977,0.877 -3.625,2.373 l -2.301,5.206 -3.166,7.185 0.002,-0.004 0.053,-0.122 c 0.663,-1.496 2.213,-2.341 3.737,-2.341 0.532,0 1.079,0.101 1.596,0.331 0.561,0.244 1.021,0.604 1.395,1.05 0.116,0.115 0.202,0.244 0.288,0.373 0.632,1.012 0.788,2.297 0.353,3.496 -0.001,0.004 0,0.008 -0.001,0.013 l 4.027,-9.09 1.337,-3.063 c 0.777,-1.97 -0.143,-4.214 -2.099,-5.076 m 155.552,14.38 c 2.199,0 3.985,-1.784 3.985,-3.984 v 21.298 c 0,2.201 -1.786,3.985 -3.985,3.985 -2.203,0 -3.986,-1.784 -3.986,-3.985 v -21.298 c 0,2.2 1.783,3.984 3.986,3.984 m 3.851,69.295 h 6.337 c -2.203,0 -3.986,1.786 -3.986,3.985 0,2.202 1.783,3.986 3.986,3.986 h -6.337 c -2.203,0 -3.986,-1.784 -3.986,-3.986 0,-2.199 1.783,-3.985 3.986,-3.985 m 73.436,-2.188 c -0.404,-0.13 -0.814,-0.192 -1.219,-0.192 -1.685,0 -3.25,1.078 -3.792,2.769 -0.674,2.097 0.481,4.34 2.579,5.011 l -0.213,-0.066 c -1.767,-0.574 -3.506,-1.245 -5.22,-2.009 -6.609,-2.955 -12.463,-7.159 -17.398,-12.497 -1.495,-1.616 -1.396,-4.137 0.219,-5.631 0.767,-0.709 1.738,-1.059 2.705,-1.059 1.073,0 2.143,0.43 2.927,1.279 5.334,5.769 12.053,10.026 19.412,12.395 M 313.574,98.672 c -3.216,-1.313 -6.773,-2.045 -10.455,-2.045 h -17.744 c -2.228,0 -4.034,-1.807 -4.034,-4.035 0,-2.229 1.806,-4.035 4.034,-4.035 h 17.744 c 4.702,0 9.193,0.918 13.309,2.577 -0.436,-0.153 -0.882,-0.231 -1.326,-0.231 -1.587,0 -3.096,0.946 -3.736,2.508 -0.843,2.062 0.146,4.417 2.208,5.261 m 270.051,-2.22 h -19.971 c 2.191,0 3.966,-1.774 3.966,-3.964 0,-2.191 -1.775,-3.966 -3.966,-3.966 h 19.971 c 2.191,0 3.967,1.775 3.967,3.966 0,2.19 -1.776,3.964 -3.967,3.964 m -43.561,91.841 h 22.394 c 2.19,0 3.965,1.772 3.965,3.963 0,2.193 -1.775,3.968 -3.965,3.968 h -22.394 c 2.191,0 3.964,-1.775 3.964,-3.968 0,-2.191 -1.773,-3.963 -3.964,-3.963 m -13.878,-65.962 c -2.192,0 -3.967,1.773 -3.967,3.966 v -12.08 c 0,-2.191 1.775,-3.966 3.967,-3.966 2.19,0 3.966,1.775 3.966,3.966 v 12.08 c 0,-2.193 -1.776,-3.966 -3.966,-3.966 M 473.594,96.544 h -14.991 c -1.298,0 -2.593,0.057 -3.88,0.166 0.042,-0.004 0.087,-0.01 0.132,-0.013 2.194,-0.179 3.826,-2.103 3.646,-4.297 -0.171,-2.083 -1.913,-3.66 -3.966,-3.66 -0.081,0 -0.163,0.006 -0.247,0.01 1.432,-0.116 2.871,-0.176 4.315,-0.176 h 14.991 c 2.202,0 3.986,1.784 3.986,3.986 0,2.199 -1.784,3.984 -3.986,3.984 m -178.896,99.705 c 2.191,0 3.966,-1.816 3.966,-4.005 0,-2.01 -1.495,-3.666 -3.433,-3.927 h 11.627 c 2.188,0 3.963,1.775 3.963,3.967 0,2.189 -1.775,3.965 -3.963,3.965 h -12.146 z m -40.159,-28.992 c -0.02,-0.08 -0.043,-0.16 -0.062,-0.242 -0.427,-1.843 -2.065,-3.088 -3.88,-3.088 -0.297,0 -0.598,0.033 -0.901,0.104 -2.098,0.484 -3.419,2.546 -3.009,4.643 -1.564,-6.858 -1.109,-14.169 1.573,-20.996 0.615,-1.568 2.118,-2.528 3.708,-2.528 0.486,0 0.981,0.09 1.458,0.277 2.048,0.806 3.056,3.118 2.25,5.167 -2.129,5.42 -2.452,11.233 -1.137,16.663 m -69.921,12.35 c -0.716,-1.219 -1.888,-1.935 -3.25,-1.94 -0.548,-0.002 -1.101,0.11 -1.632,0.345 -1.904,0.846 -2.851,3.007 -2.264,4.987 l -4.432,-10.228 c -0.874,-2.006 0.044,-4.344 2.053,-5.22 0.52,-0.226 1.062,-0.331 1.595,-0.331 1.321,0.007 2.59,0.675 3.326,1.825 0.112,0.176 0.214,0.361 0.298,0.559 l 4.452,10.272 c -0.045,-0.086 -0.09,-0.172 -0.14,-0.256 0,-0.006 -0.003,-0.007 -0.006,-0.013 M 125.945,96.543 h -12.078 c 2.191,0 3.966,-1.775 3.966,-3.966 0,-2.191 -1.775,-3.966 -3.966,-3.966 h 12.078 c 2.191,0 3.966,1.775 3.966,3.966 0,2.191 -1.775,3.966 -3.966,3.966 m -48.373,70.985 c -2.191,0 -3.966,1.777 -3.966,3.966 v -21.995 c 0,-2.19 1.775,-3.967 3.966,-3.967 2.191,0 3.967,1.777 3.967,3.967 v 21.995 c 0,-2.189 -1.776,-3.966 -3.967,-3.966"
                       style="fill:url(#linearGradient840);stroke:none"
                       id="path842" />
                  </g>
                </g>
              </g>
            </g>
          </g>
        </g>
      </g>
      <g
         id="g856">
        <g
           id="g858" />
        <g
           id="g894">
          <g
             clip-path="url(#clipPath862)"
             opacity="0.899994"
             id="g892">
            <g
               id="g890">
              <g
                 id="g888">
                <g
                   id="g886">
                  <g
                     id="g884">
                    <path
                       d="m 209.168,121.813 v 0.029 c -0.015,0.029 -0.015,0.043 -0.029,0.072 l -0.834,1.855 -3.739,8.341 c -0.878,1.999 -3.222,2.906 -5.221,2.028 -0.359,-0.158 -0.676,-0.359 -0.963,-0.604 -0.144,-0.115 -0.274,-0.259 -0.403,-0.403 -0.129,-0.143 -0.23,-0.301 -0.345,-0.46 -0.691,-1.078 -0.834,-2.473 -0.288,-3.725 l 3.826,-8.643 0.431,-0.935 0.144,-0.33 0.058,-0.116 c 0.661,-1.495 2.2,-2.344 3.724,-2.344 0.533,0 1.079,0.101 1.596,0.331 0.562,0.244 1.022,0.604 1.396,1.05 0.115,0.115 0.201,0.244 0.288,0.374 0.632,1.006 0.791,2.287 0.359,3.48 m 280.352,70.429 c 0,2.202 -1.783,3.986 -3.986,3.986 h -26.421 c -5.553,0 -11.028,-0.853 -16.272,-2.534 -2.095,-0.672 -3.25,-2.915 -2.578,-5.011 0.542,-1.692 2.109,-2.769 3.795,-2.769 0.404,0 0.814,0.062 1.219,0.19 4.454,1.429 9.109,2.154 13.836,2.154 h 22.455 v -10.351 c 0,-2.191 1.775,-3.967 3.966,-3.967 2.192,0 3.966,1.776 3.966,3.967 v 13.945 c 0.012,0.129 0.02,0.258 0.02,0.39 M 458.512,92.4 c 0.18,2.194 -1.452,4.117 -3.646,4.296 -6.997,0.573 -13.856,2.81 -19.839,6.471 -1.877,1.147 -4.332,0.557 -5.48,-1.321 -1.147,-1.878 -0.557,-4.331 1.32,-5.478 7.042,-4.308 15.115,-6.941 23.348,-7.616 0.112,-0.008 0.222,-0.012 0.331,-0.012 2.054,0 3.795,1.577 3.966,3.66 m -90.546,-3.829 c 0.129,0 0.256,0.007 0.379,0.018 h 14.039 c 2.191,0 3.967,1.777 3.967,3.967 0,2.191 -1.776,3.966 -3.967,3.966 h -10.432 v 18.493 c 0,2.2 -1.784,3.985 -3.986,3.985 -2.202,0 -3.986,-1.785 -3.986,-3.985 V 92.556 c 0,-2.201 1.784,-3.985 3.986,-3.985 m 6.202,103.709 c 0,-2.2 1.784,-3.986 3.986,-3.986 h 4.247 c 2.203,0 3.986,1.786 3.986,3.986 0,2.201 -1.783,3.985 -3.986,3.985 h -4.247 c -2.202,0 -3.986,-1.784 -3.986,-3.985 m 165.908,3.943 h -14.674 c -2.191,0 -3.964,-1.776 -3.964,-3.967 v -17.351 c 0,-2.191 1.773,-3.966 3.964,-3.966 2.191,0 3.966,1.775 3.966,3.966 v 13.387 h 10.708 c 2.191,0 3.963,1.773 3.963,3.964 0,2.193 -1.772,3.967 -3.963,3.967 M 567.631,92.487 c 0,2.19 -1.775,3.965 -3.966,3.965 H 547.66 c -2.191,0 -3.967,-1.775 -3.967,-3.965 0,-2.191 1.776,-3.966 3.967,-3.966 h 16.005 c 2.191,0 3.966,1.775 3.966,3.966 M 191.832,196.284 h -6.057 c -0.101,0 -0.199,-0.009 -0.3,-0.016 -0.023,-0.002 -0.048,0 -0.073,-0.004 -0.508,-0.046 -0.986,-0.194 -1.424,-0.414 -0.025,-0.012 -0.051,-0.023 -0.073,-0.037 -0.04,-0.021 -0.079,-0.043 -0.115,-0.066 -0.756,-0.43 -1.382,-1.104 -1.753,-1.975 l -4.388,-10.31 c -0.034,-0.076 -0.062,-0.151 -0.089,-0.227 -0.029,-0.079 -0.057,-0.159 -0.077,-0.237 -0.587,-1.981 0.36,-4.14 2.265,-4.988 0.53,-0.233 1.084,-0.347 1.631,-0.344 1.363,0.004 2.534,0.722 3.25,1.941 0.003,0.004 0.003,0.007 0.006,0.011 0.048,0.086 0.095,0.17 0.14,0.257 0.048,0.094 0.09,0.19 0.132,0.286 l 3.546,8.192 h 3.379 c 2.19,0 3.966,1.772 3.966,3.964 0,2.189 -1.776,3.967 -3.966,3.967 m 106.843,-4.042 c 0,2.191 -1.775,3.966 -3.966,3.966 h -10.885 c -2.191,0 -3.969,-1.775 -3.969,-3.966 0,-2.191 1.778,-3.965 3.969,-3.965 h 10.885 c 2.191,0 3.966,1.774 3.966,3.965 M 117.841,92.575 c 0,2.192 -1.775,3.967 -3.966,3.967 H 100.03 c -2.191,0 -3.967,-1.775 -3.967,-3.967 0,-2.191 1.776,-3.964 3.967,-3.964 h 13.845 c 2.191,0 3.966,1.773 3.966,3.964 M 91.465,196.248 H 77.586 l -0.003,0.001 c -1.643,0 -3.053,-0.999 -3.654,-2.422 -0.045,-0.109 -0.087,-0.221 -0.121,-0.335 -0.005,-0.01 -0.008,-0.019 -0.011,-0.029 -0.118,-0.374 -0.18,-0.77 -0.18,-1.18 v -20.79 c 0,-2.188 1.776,-3.965 3.966,-3.965 2.191,0 3.967,1.777 3.967,3.965 v 16.824 h 9.915 c 2.188,0 3.964,1.775 3.964,3.966 0,2.19 -1.776,3.965 -3.964,3.965 M 530.16,126.297 v 10.598 c 0,2.192 -1.772,3.966 -3.966,3.966 -2.189,0 -3.964,-1.774 -3.964,-3.966 v -10.598 c 0,-2.193 1.775,-3.966 3.964,-3.966 2.194,0 3.966,1.773 3.966,3.966 m -275.672,40.717 c 1.165,5.04 3.727,9.65 7.407,13.331 1.559,1.556 1.559,4.08 0,5.636 -1.553,1.556 -4.079,1.556 -5.635,0 -4.736,-4.737 -8.036,-10.675 -9.536,-17.171 -0.497,-2.143 0.839,-4.285 2.983,-4.781 0.303,-0.069 0.604,-0.102 0.901,-0.102 1.812,0 3.453,1.245 3.88,3.087 m 60.625,-76.111 c -1.587,0 -3.095,0.945 -3.736,2.507 -0.842,2.062 0.146,4.418 2.208,5.262 10.438,4.273 17.185,14.33 17.185,25.622 0,2.229 1.806,4.035 4.037,4.035 2.227,0 4.033,-1.806 4.033,-4.035 0,-7.236 -2.152,-14.205 -6.219,-20.155 -3.969,-5.808 -9.494,-10.28 -15.98,-12.934 -0.5,-0.205 -1.019,-0.302 -1.528,-0.302"
                       style="fill:url(#linearGradient880);stroke:none"
                       id="path882" />
                  </g>
                </g>
              </g>
            </g>
          </g>
        </g>
      </g>
    </g>
  </g>
</svg>
